<svg width="286" height="36" viewBox="0 0 286 36" fill="none" xmlns="http://www.w3.org/2000/svg">
<path d="M6.24023 12.1465C5.44434 12.1465 4.70947 12.0098 4.03564 11.7363C3.3667 11.4629 2.7832 11.0796 2.28516 10.5864C1.79199 10.0933 1.40869 9.51221 1.13525 8.84326C0.866699 8.16943 0.732422 7.43701 0.732422 6.646C0.732422 5.8501 0.869141 5.11768 1.14258 4.44873C1.41602 3.7749 1.79932 3.19141 2.29248 2.69824C2.79053 2.20508 3.37402 1.82178 4.04297 1.54834C4.7168 1.2749 5.44922 1.13818 6.24023 1.13818C7.00684 1.13818 7.72217 1.27734 8.38623 1.55566C9.05518 1.8291 9.64111 2.21484 10.144 2.71289C10.647 3.20605 11.04 3.78711 11.3232 4.45605C11.6064 5.125 11.748 5.85498 11.748 6.646C11.748 7.43701 11.6113 8.16943 11.3379 8.84326C11.0645 9.51221 10.6787 10.0933 10.1807 10.5864C9.6875 11.0796 9.104 11.4629 8.43018 11.7363C7.76123 12.0098 7.03125 12.1465 6.24023 12.1465ZM6.47461 9.99316C5.48828 9.99316 4.74609 9.69043 4.24805 9.08496C3.75 8.47461 3.50098 7.66162 3.50098 6.646C3.50098 5.99658 3.61816 5.42285 3.85254 4.9248C4.0918 4.42188 4.43604 4.02881 4.88525 3.74561C5.33936 3.45752 5.88867 3.31348 6.5332 3.31348C6.85547 3.31348 7.17529 3.35254 7.49268 3.43066C7.81006 3.50879 8.10791 3.61865 8.38623 3.76025L7.97607 4.60986C7.73193 4.48291 7.49023 4.3877 7.25098 4.32422C7.01172 4.25586 6.77734 4.22168 6.54785 4.22168C5.92773 4.22168 5.44678 4.43896 5.10498 4.87354C4.76318 5.30322 4.59229 5.89404 4.59229 6.646C4.59229 7.42725 4.74609 8.02783 5.05371 8.44775C5.36621 8.86768 5.85693 9.07764 6.52588 9.07764C6.77002 9.07764 7.03125 9.0459 7.30957 8.98242C7.59277 8.91895 7.86133 8.83594 8.11523 8.7334V9.62695C7.87598 9.73438 7.62939 9.82227 7.37549 9.89062C7.12158 9.95898 6.82129 9.99316 6.47461 9.99316ZM6.24023 11.3994C6.88965 11.3994 7.49756 11.2822 8.06396 11.0479C8.63525 10.8135 9.13574 10.4839 9.56543 10.0591C9.99512 9.62939 10.332 9.12646 10.5762 8.55029C10.8203 7.96924 10.9424 7.33447 10.9424 6.646C10.9424 5.9917 10.8252 5.37891 10.5908 4.80762C10.3613 4.23633 10.0366 3.73096 9.6167 3.2915C9.19678 2.85205 8.69873 2.51025 8.12256 2.26611C7.55127 2.01709 6.92383 1.89258 6.24023 1.89258C5.55664 1.89258 4.92676 2.00977 4.35059 2.24414C3.7793 2.47852 3.28125 2.81055 2.85645 3.24023C2.43652 3.66504 2.10938 4.16797 1.875 4.74902C1.64551 5.3252 1.53076 5.95752 1.53076 6.646C1.53076 7.30029 1.64551 7.91553 1.875 8.4917C2.10449 9.06299 2.4292 9.56836 2.84912 10.0078C3.27393 10.4424 3.77197 10.7842 4.34326 11.0332C4.91943 11.2773 5.55176 11.3994 6.24023 11.3994ZM23.9194 2.23682C23.3286 2.23682 22.7964 2.33936 22.3228 2.54443C21.854 2.74463 21.4536 3.0376 21.1216 3.42334C20.7944 3.8042 20.543 4.26562 20.3672 4.80762C20.1914 5.34961 20.1035 5.95996 20.1035 6.63867C20.1035 7.53711 20.2427 8.31836 20.521 8.98242C20.8042 9.6416 21.2241 10.1519 21.7808 10.5132C22.3423 10.8745 23.043 11.0552 23.8828 11.0552C24.3613 11.0552 24.8105 11.0161 25.2305 10.938C25.6553 10.855 26.0679 10.7524 26.4683 10.6304V11.7144C26.0776 11.8608 25.6675 11.9683 25.2378 12.0366C24.8081 12.1099 24.2979 12.1465 23.707 12.1465C22.6182 12.1465 21.7075 11.9219 20.9751 11.4727C20.2476 11.0186 19.7007 10.3789 19.3345 9.55371C18.9731 8.72852 18.7925 7.75439 18.7925 6.63135C18.7925 5.8208 18.9048 5.08105 19.1294 4.41211C19.3589 3.73828 19.6909 3.15723 20.1255 2.66895C20.5649 2.18066 21.1021 1.80469 21.7368 1.54102C22.3765 1.27246 23.1089 1.13818 23.9341 1.13818C24.4761 1.13818 24.9985 1.19189 25.5015 1.29932C26.0044 1.40674 26.4585 1.56055 26.8638 1.76074L26.3657 2.81543C26.0239 2.65918 25.6479 2.5249 25.2378 2.4126C24.8325 2.29541 24.3931 2.23682 23.9194 2.23682ZM36.2783 7.97168C36.2783 8.63086 36.1929 9.21924 36.022 9.73682C35.8511 10.2544 35.6045 10.6914 35.2822 11.0479C34.96 11.4043 34.5693 11.6777 34.1104 11.8682C33.6562 12.0537 33.1411 12.1465 32.5649 12.1465C32.0278 12.1465 31.5347 12.0537 31.0854 11.8682C30.6411 11.6777 30.2554 11.4043 29.9282 11.0479C29.606 10.6914 29.3545 10.2544 29.1738 9.73682C28.998 9.21924 28.9102 8.63086 28.9102 7.97168C28.9102 7.09277 29.0591 6.3457 29.3569 5.73047C29.6548 5.11035 30.0796 4.63916 30.6313 4.31689C31.188 3.98975 31.8496 3.82617 32.6162 3.82617C33.3486 3.82617 33.9883 3.98975 34.5352 4.31689C35.0869 4.64404 35.5142 5.11768 35.8169 5.73779C36.1245 6.35303 36.2783 7.09766 36.2783 7.97168ZM30.1699 7.97168C30.1699 8.61621 30.2554 9.17529 30.4263 9.64893C30.5972 10.1226 30.8608 10.4888 31.2173 10.7476C31.5737 11.0063 32.0327 11.1357 32.5942 11.1357C33.1509 11.1357 33.6074 11.0063 33.9639 10.7476C34.3252 10.4888 34.5913 10.1226 34.7622 9.64893C34.9331 9.17529 35.0186 8.61621 35.0186 7.97168C35.0186 7.33203 34.9331 6.78027 34.7622 6.31641C34.5913 5.84766 34.3276 5.48633 33.9712 5.23242C33.6147 4.97852 33.1533 4.85156 32.5869 4.85156C31.752 4.85156 31.1392 5.12744 30.7485 5.6792C30.3628 6.23096 30.1699 6.99512 30.1699 7.97168ZM42.9023 3.82617C43.9033 3.82617 44.7017 4.17041 45.2974 4.85889C45.8931 5.54736 46.1909 6.58252 46.1909 7.96436C46.1909 8.87744 46.0542 9.64404 45.7808 10.2642C45.5073 10.8843 45.1216 11.353 44.6235 11.6704C44.1304 11.9878 43.5469 12.1465 42.873 12.1465C42.4482 12.1465 42.0747 12.0903 41.7524 11.978C41.4302 11.8657 41.1543 11.7144 40.9248 11.5239C40.6953 11.3335 40.5049 11.126 40.3535 10.9014H40.2656C40.2803 11.0918 40.2974 11.3213 40.3169 11.5898C40.3413 11.8584 40.3535 12.0928 40.3535 12.293V15.5889H39.1304V3.97266H40.1338L40.2949 5.15918H40.3535C40.5098 4.91504 40.7002 4.69287 40.9248 4.49268C41.1494 4.2876 41.4229 4.12646 41.7451 4.00928C42.0723 3.88721 42.458 3.82617 42.9023 3.82617ZM42.6899 4.85156C42.1333 4.85156 41.6841 4.95898 41.3423 5.17383C41.0054 5.38867 40.7588 5.71094 40.6025 6.14062C40.4463 6.56543 40.3633 7.1001 40.3535 7.74463V7.979C40.3535 8.65771 40.4268 9.23145 40.5732 9.7002C40.7246 10.1689 40.9712 10.5254 41.313 10.7695C41.6597 11.0137 42.1235 11.1357 42.7046 11.1357C43.2026 11.1357 43.6177 11.0015 43.9497 10.7329C44.2817 10.4644 44.5283 10.0908 44.6895 9.6123C44.8555 9.12891 44.9385 8.57471 44.9385 7.94971C44.9385 7.00244 44.7529 6.25049 44.3818 5.69385C44.0156 5.13232 43.4517 4.85156 42.6899 4.85156ZM47.7979 3.97266H49.1016L50.874 8.63086C50.9766 8.9043 51.0718 9.16797 51.1597 9.42188C51.2476 9.6709 51.3257 9.91016 51.394 10.1396C51.4624 10.3691 51.5161 10.5913 51.5552 10.8062H51.6064C51.6748 10.562 51.7725 10.2422 51.8994 9.84668C52.0264 9.44629 52.1631 9.03857 52.3096 8.62354L53.9868 3.97266H55.2979L51.8042 13.1792C51.6187 13.6724 51.4014 14.1021 51.1523 14.4683C50.9082 14.8345 50.6104 15.1152 50.2588 15.3105C49.9072 15.5107 49.4824 15.6108 48.9844 15.6108C48.7549 15.6108 48.5522 15.5962 48.3765 15.5669C48.2007 15.5425 48.0493 15.5132 47.9224 15.479V14.5049C48.0298 14.5293 48.1592 14.5513 48.3105 14.5708C48.4668 14.5903 48.6279 14.6001 48.7939 14.6001C49.0967 14.6001 49.3579 14.5415 49.5776 14.4243C49.8022 14.312 49.9951 14.146 50.1562 13.9263C50.3174 13.7065 50.4565 13.4453 50.5737 13.1426L51.0132 12.0146L47.7979 3.97266ZM60.9771 3.82617C61.1382 3.82617 61.3066 3.83594 61.4824 3.85547C61.6582 3.87012 61.8145 3.89209 61.9512 3.92139L61.7974 5.04932C61.6655 5.01514 61.519 4.98828 61.3579 4.96875C61.1968 4.94922 61.0454 4.93945 60.9038 4.93945C60.5815 4.93945 60.2764 5.00537 59.9883 5.13721C59.7051 5.26416 59.4561 5.44971 59.2412 5.69385C59.0264 5.93311 58.8579 6.22363 58.7358 6.56543C58.6138 6.90234 58.5527 7.27832 58.5527 7.69336V12H57.3296V3.97266H58.3403L58.4722 5.45215H58.5234C58.6895 5.1543 58.8896 4.8833 59.124 4.63916C59.3584 4.39014 59.6294 4.19238 59.937 4.0459C60.2495 3.89941 60.5962 3.82617 60.9771 3.82617ZM65.4331 3.97266V12H64.2173V3.97266H65.4331ZM64.8398 0.969727C65.04 0.969727 65.2109 1.03564 65.3525 1.16748C65.499 1.29443 65.5723 1.49463 65.5723 1.76807C65.5723 2.03662 65.499 2.23682 65.3525 2.36865C65.2109 2.50049 65.04 2.56641 64.8398 2.56641C64.6299 2.56641 64.4541 2.50049 64.3125 2.36865C64.1758 2.23682 64.1074 2.03662 64.1074 1.76807C64.1074 1.49463 64.1758 1.29443 64.3125 1.16748C64.4541 1.03564 64.6299 0.969727 64.8398 0.969727ZM71.0024 15.6035C69.9478 15.6035 69.1348 15.4058 68.5635 15.0103C67.9922 14.6196 67.7065 14.0703 67.7065 13.3623C67.7065 12.8594 67.8652 12.4297 68.1826 12.0732C68.5049 11.7168 68.9492 11.48 69.5156 11.3628C69.3057 11.2651 69.125 11.1187 68.9736 10.9233C68.8271 10.728 68.7539 10.5034 68.7539 10.2495C68.7539 9.95654 68.8345 9.7002 68.9956 9.48047C69.1616 9.25586 69.4131 9.04102 69.75 8.83594C69.3301 8.66504 68.9883 8.37695 68.7246 7.97168C68.4658 7.56152 68.3364 7.08545 68.3364 6.54346C68.3364 5.96729 68.4561 5.47656 68.6953 5.07129C68.9346 4.66113 69.2812 4.34863 69.7354 4.13379C70.1895 3.91895 70.7388 3.81152 71.3833 3.81152C71.5249 3.81152 71.6665 3.81885 71.8081 3.8335C71.9546 3.84326 72.0938 3.86035 72.2256 3.88477C72.3574 3.9043 72.4722 3.92871 72.5698 3.95801H75.3237V4.7417L73.8442 4.9248C73.9907 5.11523 74.1128 5.34473 74.2104 5.61328C74.3081 5.88184 74.3569 6.17969 74.3569 6.50684C74.3569 7.30762 74.0859 7.94482 73.5439 8.41846C73.002 8.88721 72.2573 9.12158 71.3101 9.12158C71.0854 9.12158 70.856 9.10205 70.6216 9.06299C70.3823 9.19482 70.1992 9.34131 70.0723 9.50244C69.9502 9.66357 69.8892 9.84912 69.8892 10.0591C69.8892 10.2153 69.9355 10.3398 70.0283 10.4326C70.126 10.5254 70.2651 10.5938 70.4458 10.6377C70.6265 10.6768 70.8438 10.6963 71.0977 10.6963H72.5112C73.3853 10.6963 74.0542 10.8794 74.5181 11.2456C74.9868 11.6118 75.2212 12.1465 75.2212 12.8496C75.2212 13.7383 74.8599 14.4194 74.1372 14.8931C73.4146 15.3667 72.3696 15.6035 71.0024 15.6035ZM71.0391 14.6514C71.7031 14.6514 72.2524 14.583 72.687 14.4463C73.1265 14.3145 73.4536 14.1216 73.6685 13.8677C73.8882 13.6187 73.998 13.3208 73.998 12.9741C73.998 12.6519 73.9248 12.4077 73.7783 12.2417C73.6318 12.0806 73.417 11.9731 73.1338 11.9194C72.8506 11.8608 72.5039 11.8315 72.0938 11.8315H70.7021C70.3408 11.8315 70.0259 11.8877 69.7573 12C69.4888 12.1123 69.2812 12.2783 69.1348 12.498C68.9932 12.7178 68.9224 12.9912 68.9224 13.3184C68.9224 13.7529 69.1055 14.0825 69.4717 14.3071C69.8379 14.5366 70.3604 14.6514 71.0391 14.6514ZM71.354 8.23535C71.9351 8.23535 72.3721 8.08887 72.665 7.7959C72.958 7.50293 73.1045 7.07568 73.1045 6.51416C73.1045 5.91357 72.9556 5.46436 72.6577 5.1665C72.3599 4.86377 71.9204 4.7124 71.3394 4.7124C70.7827 4.7124 70.353 4.86865 70.0503 5.18115C69.7524 5.48877 69.6035 5.94043 69.6035 6.53613C69.6035 7.08301 69.7549 7.50293 70.0576 7.7959C70.3604 8.08887 70.7925 8.23535 71.354 8.23535ZM78.8716 0.603516V4.00928C78.8716 4.20459 78.8667 4.40234 78.8569 4.60254C78.8472 4.79785 78.8301 4.97852 78.8057 5.14453H78.8862C79.0522 4.86133 79.2622 4.62451 79.5161 4.43408C79.7749 4.23877 80.0679 4.09229 80.395 3.99463C80.7222 3.89209 81.0688 3.84082 81.4351 3.84082C82.0796 3.84082 82.6167 3.94336 83.0464 4.14844C83.481 4.35352 83.8057 4.6709 84.0205 5.10059C84.2402 5.53027 84.3501 6.08691 84.3501 6.77051V12H83.1489V6.85107C83.1489 6.18213 82.9951 5.68164 82.6875 5.34961C82.3848 5.01758 81.9185 4.85156 81.2886 4.85156C80.6929 4.85156 80.2168 4.96631 79.8604 5.1958C79.5088 5.42041 79.2549 5.75244 79.0986 6.19189C78.9473 6.63135 78.8716 7.16846 78.8716 7.80322V12H77.6558V0.603516H78.8716ZM90.1978 11.1504C90.3979 11.1504 90.603 11.1333 90.813 11.0991C91.0229 11.0649 91.1938 11.0234 91.3257 10.9746V11.9194C91.1841 11.9829 90.9863 12.0366 90.7324 12.0806C90.4834 12.1245 90.2393 12.1465 90 12.1465C89.5752 12.1465 89.1895 12.0732 88.8428 11.9268C88.4961 11.7754 88.2178 11.5215 88.0078 11.165C87.8027 10.8086 87.7002 10.3154 87.7002 9.68555V4.9248H86.5576V4.33154L87.7075 3.85547L88.1909 2.1123H88.9233V3.97266H91.2744V4.9248H88.9233V9.64893C88.9233 10.1519 89.0381 10.5278 89.2676 10.7769C89.502 11.0259 89.812 11.1504 90.1978 11.1504ZM104.823 12H97.8062V10.9819L100.67 8.07422C101.202 7.53711 101.649 7.05859 102.01 6.63867C102.376 6.21875 102.655 5.80615 102.845 5.40088C103.036 4.99072 103.131 4.5415 103.131 4.05322C103.131 3.44775 102.95 2.98633 102.589 2.66895C102.232 2.34668 101.761 2.18555 101.175 2.18555C100.663 2.18555 100.208 2.27344 99.813 2.44922C99.4175 2.625 99.0122 2.87402 98.5972 3.19629L97.9453 2.37598C98.2285 2.13672 98.5361 1.92432 98.8682 1.73877C99.2051 1.55322 99.564 1.40674 99.9448 1.29932C100.331 1.19189 100.741 1.13818 101.175 1.13818C101.834 1.13818 102.403 1.25293 102.882 1.48242C103.36 1.71191 103.729 2.03906 103.988 2.46387C104.251 2.88867 104.383 3.39404 104.383 3.97998C104.383 4.54639 104.271 5.07373 104.046 5.56201C103.822 6.04541 103.507 6.52637 103.102 7.00488C102.696 7.47852 102.223 7.98145 101.681 8.51367L99.3516 10.8354V10.8867H104.823V12ZM114.215 6.63135C114.215 7.50049 114.149 8.27686 114.018 8.96045C113.886 9.64404 113.678 10.2227 113.395 10.6963C113.112 11.1699 112.746 11.5312 112.296 11.7803C111.847 12.0244 111.308 12.1465 110.678 12.1465C109.882 12.1465 109.223 11.9292 108.7 11.4946C108.183 11.0601 107.794 10.4326 107.536 9.6123C107.282 8.78711 107.155 7.79346 107.155 6.63135C107.155 5.48877 107.27 4.50732 107.499 3.68701C107.733 2.86182 108.109 2.22949 108.627 1.79004C109.145 1.3457 109.828 1.12354 110.678 1.12354C111.483 1.12354 112.147 1.34326 112.67 1.78271C113.192 2.21729 113.581 2.84717 113.834 3.67236C114.088 4.49268 114.215 5.479 114.215 6.63135ZM108.378 6.63135C108.378 7.62744 108.454 8.45752 108.605 9.12158C108.756 9.78564 109 10.2837 109.337 10.6157C109.679 10.9429 110.126 11.1064 110.678 11.1064C111.229 11.1064 111.674 10.9429 112.011 10.6157C112.353 10.2886 112.599 9.79297 112.75 9.12891C112.907 8.46484 112.985 7.63232 112.985 6.63135C112.985 5.6499 112.909 4.82959 112.758 4.17041C112.606 3.50635 112.362 3.0083 112.025 2.67627C111.688 2.33936 111.239 2.1709 110.678 2.1709C110.116 2.1709 109.667 2.33936 109.33 2.67627C108.993 3.0083 108.749 3.50635 108.598 4.17041C108.451 4.82959 108.378 5.6499 108.378 6.63135ZM123.491 12H116.474V10.9819L119.338 8.07422C119.87 7.53711 120.317 7.05859 120.678 6.63867C121.044 6.21875 121.323 5.80615 121.513 5.40088C121.704 4.99072 121.799 4.5415 121.799 4.05322C121.799 3.44775 121.618 2.98633 121.257 2.66895C120.9 2.34668 120.429 2.18555 119.843 2.18555C119.331 2.18555 118.876 2.27344 118.481 2.44922C118.085 2.625 117.68 2.87402 117.265 3.19629L116.613 2.37598C116.896 2.13672 117.204 1.92432 117.536 1.73877C117.873 1.55322 118.232 1.40674 118.613 1.29932C118.999 1.19189 119.409 1.13818 119.843 1.13818C120.502 1.13818 121.071 1.25293 121.55 1.48242C122.028 1.71191 122.397 2.03906 122.656 2.46387C122.919 2.88867 123.051 3.39404 123.051 3.97998C123.051 4.54639 122.939 5.07373 122.714 5.56201C122.49 6.04541 122.175 6.52637 121.77 7.00488C121.364 7.47852 120.891 7.98145 120.349 8.51367L118.02 10.8354V10.8867H123.491V12ZM132.825 12H125.808V10.9819L128.672 8.07422C129.204 7.53711 129.651 7.05859 130.012 6.63867C130.378 6.21875 130.657 5.80615 130.847 5.40088C131.038 4.99072 131.133 4.5415 131.133 4.05322C131.133 3.44775 130.952 2.98633 130.591 2.66895C130.234 2.34668 129.763 2.18555 129.177 2.18555C128.665 2.18555 128.21 2.27344 127.815 2.44922C127.419 2.625 127.014 2.87402 126.599 3.19629L125.947 2.37598C126.23 2.13672 126.538 1.92432 126.87 1.73877C127.207 1.55322 127.566 1.40674 127.947 1.29932C128.333 1.19189 128.743 1.13818 129.177 1.13818C129.836 1.13818 130.405 1.25293 130.884 1.48242C131.362 1.71191 131.731 2.03906 131.99 2.46387C132.253 2.88867 132.385 3.39404 132.385 3.97998C132.385 4.54639 132.273 5.07373 132.048 5.56201C131.824 6.04541 131.509 6.52637 131.104 7.00488C130.698 7.47852 130.225 7.98145 129.683 8.51367L127.354 10.8354V10.8867H132.825V12ZM149.017 6.54346C149.017 7.74951 148.797 8.75781 148.358 9.56836C147.918 10.374 147.281 10.9819 146.446 11.3921C145.616 11.7974 144.608 12 143.421 12H140.514V1.29199H143.744C144.833 1.29199 145.77 1.49219 146.556 1.89258C147.342 2.28809 147.948 2.87646 148.373 3.65771C148.802 4.43408 149.017 5.396 149.017 6.54346ZM147.706 6.5874C147.706 5.62549 147.545 4.83203 147.223 4.20703C146.905 3.58203 146.437 3.11816 145.816 2.81543C145.201 2.50781 144.447 2.354 143.553 2.354H141.759V10.9307H143.275C144.75 10.9307 145.855 10.5669 146.593 9.83936C147.335 9.11182 147.706 8.02783 147.706 6.5874ZM154.967 3.84082C155.924 3.84082 156.635 4.05566 157.099 4.48535C157.562 4.91504 157.794 5.60107 157.794 6.54346V12H156.908L156.674 10.8135H156.615C156.391 11.1064 156.156 11.353 155.912 11.5532C155.668 11.7485 155.385 11.8975 155.062 12C154.745 12.0977 154.354 12.1465 153.891 12.1465C153.402 12.1465 152.968 12.061 152.587 11.8901C152.211 11.7192 151.913 11.4604 151.693 11.1138C151.479 10.7671 151.371 10.3276 151.371 9.79541C151.371 8.99463 151.688 8.37939 152.323 7.94971C152.958 7.52002 153.925 7.28564 155.224 7.24658L156.608 7.18799V6.69727C156.608 6.00391 156.459 5.51807 156.161 5.23975C155.863 4.96143 155.443 4.82227 154.901 4.82227C154.481 4.82227 154.081 4.8833 153.7 5.00537C153.319 5.12744 152.958 5.27148 152.616 5.4375L152.243 4.51465C152.604 4.3291 153.019 4.17041 153.488 4.03857C153.957 3.90674 154.45 3.84082 154.967 3.84082ZM156.593 8.04492L155.37 8.09619C154.369 8.13525 153.664 8.29883 153.253 8.58691C152.843 8.875 152.638 9.28271 152.638 9.81006C152.638 10.269 152.777 10.6084 153.056 10.8281C153.334 11.0479 153.703 11.1577 154.162 11.1577C154.875 11.1577 155.458 10.96 155.912 10.5645C156.366 10.1689 156.593 9.57568 156.593 8.78467V8.04492ZM163.642 11.1504C163.842 11.1504 164.047 11.1333 164.257 11.0991C164.467 11.0649 164.638 11.0234 164.77 10.9746V11.9194C164.628 11.9829 164.431 12.0366 164.177 12.0806C163.928 12.1245 163.684 12.1465 163.444 12.1465C163.02 12.1465 162.634 12.0732 162.287 11.9268C161.94 11.7754 161.662 11.5215 161.452 11.165C161.247 10.8086 161.145 10.3154 161.145 9.68555V4.9248H160.002V4.33154L161.152 3.85547L161.635 2.1123H162.368V3.97266H164.719V4.9248H162.368V9.64893C162.368 10.1519 162.482 10.5278 162.712 10.7769C162.946 11.0259 163.256 11.1504 163.642 11.1504ZM170.149 3.84082C171.106 3.84082 171.816 4.05566 172.28 4.48535C172.744 4.91504 172.976 5.60107 172.976 6.54346V12H172.09L171.855 10.8135H171.797C171.572 11.1064 171.338 11.353 171.094 11.5532C170.85 11.7485 170.566 11.8975 170.244 12C169.927 12.0977 169.536 12.1465 169.072 12.1465C168.584 12.1465 168.149 12.061 167.769 11.8901C167.393 11.7192 167.095 11.4604 166.875 11.1138C166.66 10.7671 166.553 10.3276 166.553 9.79541C166.553 8.99463 166.87 8.37939 167.505 7.94971C168.14 7.52002 169.106 7.28564 170.405 7.24658L171.79 7.18799V6.69727C171.79 6.00391 171.641 5.51807 171.343 5.23975C171.045 4.96143 170.625 4.82227 170.083 4.82227C169.663 4.82227 169.263 4.8833 168.882 5.00537C168.501 5.12744 168.14 5.27148 167.798 5.4375L167.424 4.51465C167.786 4.3291 168.201 4.17041 168.669 4.03857C169.138 3.90674 169.631 3.84082 170.149 3.84082ZM171.775 8.04492L170.552 8.09619C169.551 8.13525 168.845 8.29883 168.435 8.58691C168.025 8.875 167.82 9.28271 167.82 9.81006C167.82 10.269 167.959 10.6084 168.237 10.8281C168.516 11.0479 168.884 11.1577 169.343 11.1577C170.056 11.1577 170.64 10.96 171.094 10.5645C171.548 10.1689 171.775 9.57568 171.775 8.78467V8.04492ZM187.103 9.15088C187.103 9.78564 186.944 10.3276 186.627 10.7769C186.314 11.2212 185.875 11.5605 185.309 11.7949C184.742 12.0293 184.076 12.1465 183.309 12.1465C182.904 12.1465 182.521 12.127 182.159 12.0879C181.798 12.0488 181.466 11.9927 181.163 11.9194C180.86 11.8462 180.594 11.7559 180.365 11.6484V10.4546C180.731 10.606 181.178 10.7476 181.705 10.8794C182.232 11.0063 182.784 11.0698 183.36 11.0698C183.897 11.0698 184.352 10.999 184.723 10.8574C185.094 10.7109 185.375 10.5034 185.565 10.2349C185.76 9.96143 185.858 9.63428 185.858 9.25342C185.858 8.88721 185.777 8.58203 185.616 8.33789C185.455 8.08887 185.187 7.86426 184.811 7.66406C184.439 7.45898 183.932 7.2417 183.287 7.01221C182.833 6.85107 182.433 6.67529 182.086 6.48486C181.739 6.28955 181.449 6.06982 181.214 5.82568C180.98 5.58154 180.802 5.29834 180.68 4.97607C180.562 4.65381 180.504 4.28516 180.504 3.87012C180.504 3.29883 180.648 2.81055 180.936 2.40527C181.229 1.99512 181.632 1.68262 182.145 1.46777C182.662 1.24805 183.255 1.13818 183.924 1.13818C184.496 1.13818 185.023 1.19189 185.506 1.29932C185.995 1.40674 186.441 1.55078 186.847 1.73145L186.458 2.80078C186.073 2.63965 185.663 2.50537 185.228 2.39795C184.798 2.29053 184.354 2.23682 183.895 2.23682C183.436 2.23682 183.048 2.30518 182.73 2.44189C182.418 2.57373 182.179 2.76172 182.013 3.00586C181.847 3.25 181.764 3.54053 181.764 3.87744C181.764 4.25342 181.842 4.56592 181.998 4.81494C182.159 5.06396 182.413 5.28613 182.76 5.48145C183.111 5.67188 183.575 5.87207 184.151 6.08203C184.781 6.31152 185.316 6.55566 185.755 6.81445C186.195 7.06836 186.529 7.38086 186.759 7.75195C186.988 8.11816 187.103 8.58447 187.103 9.15088ZM193.075 12.1465C192.353 12.1465 191.715 11.9976 191.164 11.6997C190.612 11.4019 190.182 10.9478 189.875 10.3374C189.567 9.72705 189.413 8.95801 189.413 8.03027C189.413 7.05859 189.574 6.26514 189.896 5.6499C190.224 5.02979 190.673 4.5708 191.244 4.27295C191.815 3.9751 192.465 3.82617 193.192 3.82617C193.593 3.82617 193.979 3.86768 194.35 3.95068C194.726 4.02881 195.033 4.12891 195.272 4.25098L194.906 5.26904C194.662 5.17139 194.379 5.0835 194.057 5.00537C193.739 4.92725 193.441 4.88818 193.163 4.88818C192.606 4.88818 192.143 5.00781 191.771 5.24707C191.405 5.48633 191.129 5.83789 190.944 6.30176C190.763 6.76562 190.673 7.33691 190.673 8.01562C190.673 8.66504 190.761 9.21924 190.937 9.67822C191.117 10.1372 191.383 10.4888 191.735 10.7329C192.091 10.9722 192.536 11.0918 193.068 11.0918C193.493 11.0918 193.876 11.0479 194.218 10.96C194.56 10.8672 194.87 10.7598 195.148 10.6377V11.7217C194.879 11.8584 194.579 11.9634 194.247 12.0366C193.92 12.1099 193.529 12.1465 193.075 12.1465ZM199.018 3.97266V12H197.802V3.97266H199.018ZM198.425 0.969727C198.625 0.969727 198.796 1.03564 198.938 1.16748C199.084 1.29443 199.157 1.49463 199.157 1.76807C199.157 2.03662 199.084 2.23682 198.938 2.36865C198.796 2.50049 198.625 2.56641 198.425 2.56641C198.215 2.56641 198.039 2.50049 197.897 2.36865C197.761 2.23682 197.692 2.03662 197.692 1.76807C197.692 1.49463 197.761 1.29443 197.897 1.16748C198.039 1.03564 198.215 0.969727 198.425 0.969727ZM205.437 3.82617C206.121 3.82617 206.707 3.97754 207.195 4.28027C207.683 4.58301 208.057 5.00781 208.315 5.55469C208.574 6.09668 208.704 6.73145 208.704 7.45898V8.21338H203.159C203.174 9.15576 203.408 9.87354 203.862 10.3667C204.316 10.8599 204.956 11.1064 205.781 11.1064C206.289 11.1064 206.738 11.0601 207.129 10.9673C207.52 10.8745 207.925 10.7378 208.345 10.5571V11.6265C207.939 11.8071 207.537 11.939 207.136 12.022C206.741 12.105 206.272 12.1465 205.73 12.1465C204.958 12.1465 204.285 11.9902 203.708 11.6777C203.137 11.3604 202.693 10.8965 202.375 10.2861C202.058 9.67578 201.899 8.92871 201.899 8.04492C201.899 7.18066 202.043 6.43359 202.332 5.80371C202.625 5.16895 203.035 4.68066 203.562 4.33887C204.094 3.99707 204.719 3.82617 205.437 3.82617ZM205.422 4.82227C204.773 4.82227 204.255 5.03467 203.87 5.45947C203.484 5.88428 203.254 6.47754 203.181 7.23926H207.429C207.424 6.76074 207.349 6.34082 207.202 5.97949C207.061 5.61328 206.843 5.33008 206.55 5.12988C206.257 4.9248 205.881 4.82227 205.422 4.82227ZM215.32 3.82617C216.272 3.82617 216.993 4.06055 217.481 4.5293C217.969 4.99316 218.213 5.74023 218.213 6.77051V12H217.012V6.85107C217.012 6.18213 216.858 5.68164 216.551 5.34961C216.248 5.01758 215.782 4.85156 215.152 4.85156C214.263 4.85156 213.638 5.10303 213.277 5.60596C212.916 6.10889 212.735 6.83887 212.735 7.7959V12H211.519V3.97266H212.5L212.684 5.12988H212.75C212.92 4.84668 213.138 4.60986 213.401 4.41943C213.665 4.22412 213.96 4.07764 214.288 3.97998C214.615 3.87744 214.959 3.82617 215.32 3.82617ZM224.684 12.1465C223.961 12.1465 223.324 11.9976 222.772 11.6997C222.22 11.4019 221.791 10.9478 221.483 10.3374C221.175 9.72705 221.021 8.95801 221.021 8.03027C221.021 7.05859 221.183 6.26514 221.505 5.6499C221.832 5.02979 222.281 4.5708 222.853 4.27295C223.424 3.9751 224.073 3.82617 224.801 3.82617C225.201 3.82617 225.587 3.86768 225.958 3.95068C226.334 4.02881 226.642 4.12891 226.881 4.25098L226.515 5.26904C226.271 5.17139 225.987 5.0835 225.665 5.00537C225.348 4.92725 225.05 4.88818 224.771 4.88818C224.215 4.88818 223.751 5.00781 223.38 5.24707C223.014 5.48633 222.738 5.83789 222.552 6.30176C222.372 6.76562 222.281 7.33691 222.281 8.01562C222.281 8.66504 222.369 9.21924 222.545 9.67822C222.726 10.1372 222.992 10.4888 223.343 10.7329C223.7 10.9722 224.144 11.0918 224.676 11.0918C225.101 11.0918 225.484 11.0479 225.826 10.96C226.168 10.8672 226.478 10.7598 226.756 10.6377V11.7217C226.488 11.8584 226.188 11.9634 225.855 12.0366C225.528 12.1099 225.138 12.1465 224.684 12.1465ZM232.501 3.82617C233.185 3.82617 233.771 3.97754 234.259 4.28027C234.748 4.58301 235.121 5.00781 235.38 5.55469C235.639 6.09668 235.768 6.73145 235.768 7.45898V8.21338H230.224C230.238 9.15576 230.473 9.87354 230.927 10.3667C231.381 10.8599 232.021 11.1064 232.846 11.1064C233.354 11.1064 233.803 11.0601 234.193 10.9673C234.584 10.8745 234.989 10.7378 235.409 10.5571V11.6265C235.004 11.8071 234.601 11.939 234.201 12.022C233.805 12.105 233.336 12.1465 232.794 12.1465C232.023 12.1465 231.349 11.9902 230.773 11.6777C230.202 11.3604 229.757 10.8965 229.44 10.2861C229.123 9.67578 228.964 8.92871 228.964 8.04492C228.964 7.18066 229.108 6.43359 229.396 5.80371C229.689 5.16895 230.099 4.68066 230.626 4.33887C231.159 3.99707 231.784 3.82617 232.501 3.82617ZM232.487 4.82227C231.837 4.82227 231.32 5.03467 230.934 5.45947C230.548 5.88428 230.319 6.47754 230.246 7.23926H234.494C234.489 6.76074 234.413 6.34082 234.267 5.97949C234.125 5.61328 233.908 5.33008 233.615 5.12988C233.322 4.9248 232.946 4.82227 232.487 4.82227ZM251.514 1.29199V8.2207C251.514 8.97754 251.36 9.65137 251.052 10.2422C250.75 10.833 250.291 11.2993 249.675 11.6411C249.06 11.978 248.289 12.1465 247.361 12.1465C246.038 12.1465 245.029 11.7876 244.336 11.0698C243.647 10.3521 243.303 9.39258 243.303 8.19141V1.29199H244.556V8.22803C244.556 9.13623 244.795 9.83691 245.273 10.3301C245.757 10.8232 246.477 11.0698 247.434 11.0698C248.088 11.0698 248.623 10.9526 249.038 10.7183C249.458 10.479 249.768 10.147 249.968 9.72217C250.173 9.29248 250.276 8.79688 250.276 8.23535V1.29199H251.514ZM258.724 3.82617C259.676 3.82617 260.396 4.06055 260.884 4.5293C261.373 4.99316 261.617 5.74023 261.617 6.77051V12H260.416V6.85107C260.416 6.18213 260.262 5.68164 259.954 5.34961C259.651 5.01758 259.185 4.85156 258.555 4.85156C257.667 4.85156 257.042 5.10303 256.68 5.60596C256.319 6.10889 256.138 6.83887 256.138 7.7959V12H254.922V3.97266H255.904L256.087 5.12988H256.153C256.324 4.84668 256.541 4.60986 256.805 4.41943C257.068 4.22412 257.364 4.07764 257.691 3.97998C258.018 3.87744 258.362 3.82617 258.724 3.82617ZM266.087 3.97266V12H264.872V3.97266H266.087ZM265.494 0.969727C265.694 0.969727 265.865 1.03564 266.007 1.16748C266.153 1.29443 266.227 1.49463 266.227 1.76807C266.227 2.03662 266.153 2.23682 266.007 2.36865C265.865 2.50049 265.694 2.56641 265.494 2.56641C265.284 2.56641 265.108 2.50049 264.967 2.36865C264.83 2.23682 264.762 2.03662 264.762 1.76807C264.762 1.49463 264.83 1.29443 264.967 1.16748C265.108 1.03564 265.284 0.969727 265.494 0.969727ZM276.337 7.97168C276.337 8.63086 276.251 9.21924 276.081 9.73682C275.91 10.2544 275.663 10.6914 275.341 11.0479C275.019 11.4043 274.628 11.6777 274.169 11.8682C273.715 12.0537 273.2 12.1465 272.624 12.1465C272.086 12.1465 271.593 12.0537 271.144 11.8682C270.7 11.6777 270.314 11.4043 269.987 11.0479C269.665 10.6914 269.413 10.2544 269.232 9.73682C269.057 9.21924 268.969 8.63086 268.969 7.97168C268.969 7.09277 269.118 6.3457 269.416 5.73047C269.713 5.11035 270.138 4.63916 270.69 4.31689C271.247 3.98975 271.908 3.82617 272.675 3.82617C273.407 3.82617 274.047 3.98975 274.594 4.31689C275.146 4.64404 275.573 5.11768 275.875 5.73779C276.183 6.35303 276.337 7.09766 276.337 7.97168ZM270.229 7.97168C270.229 8.61621 270.314 9.17529 270.485 9.64893C270.656 10.1226 270.919 10.4888 271.276 10.7476C271.632 11.0063 272.091 11.1357 272.653 11.1357C273.209 11.1357 273.666 11.0063 274.022 10.7476C274.384 10.4888 274.65 10.1226 274.821 9.64893C274.992 9.17529 275.077 8.61621 275.077 7.97168C275.077 7.33203 274.992 6.78027 274.821 6.31641C274.65 5.84766 274.386 5.48633 274.03 5.23242C273.673 4.97852 273.212 4.85156 272.646 4.85156C271.811 4.85156 271.198 5.12744 270.807 5.6792C270.421 6.23096 270.229 6.99512 270.229 7.97168ZM282.99 3.82617C283.942 3.82617 284.663 4.06055 285.151 4.5293C285.639 4.99316 285.883 5.74023 285.883 6.77051V12H284.682V6.85107C284.682 6.18213 284.528 5.68164 284.221 5.34961C283.918 5.01758 283.452 4.85156 282.822 4.85156C281.933 4.85156 281.308 5.10303 280.947 5.60596C280.585 6.10889 280.405 6.83887 280.405 7.7959V12H279.189V3.97266H280.17L280.354 5.12988H280.419C280.59 4.84668 280.808 4.60986 281.071 4.41943C281.335 4.22412 281.63 4.07764 281.958 3.97998C282.285 3.87744 282.629 3.82617 282.99 3.82617ZM20.9897 30.2202L13.9438 27.1001V26.4043L20.9897 22.918V24.002L15.2622 26.7046L20.9897 29.1436V30.2202ZM30.7046 32L29.3862 28.6016H25.0942L23.7832 32H22.5234L26.7129 21.248H27.8335L31.9937 32H30.7046ZM29.0127 27.4956L27.7603 24.1191C27.731 24.0312 27.6821 23.8872 27.6138 23.687C27.5503 23.4868 27.4844 23.2793 27.416 23.0645C27.3477 22.8496 27.2915 22.6763 27.2476 22.5444C27.1987 22.7446 27.145 22.9448 27.0864 23.145C27.0327 23.3403 26.979 23.5234 26.9253 23.6943C26.8716 23.8604 26.8252 24.002 26.7861 24.1191L25.5117 27.4956H29.0127ZM35.2705 32H34.0474V20.6035H35.2705V32ZM39.8145 32H38.5913V20.6035H39.8145V32ZM51.4292 23.8262C51.5903 23.8262 51.7588 23.8359 51.9346 23.8555C52.1104 23.8701 52.2666 23.8921 52.4033 23.9214L52.2495 25.0493C52.1177 25.0151 51.9712 24.9883 51.8101 24.9688C51.6489 24.9492 51.4976 24.9395 51.356 24.9395C51.0337 24.9395 50.7285 25.0054 50.4404 25.1372C50.1572 25.2642 49.9082 25.4497 49.6934 25.6938C49.4785 25.9331 49.3101 26.2236 49.188 26.5654C49.0659 26.9023 49.0049 27.2783 49.0049 27.6934V32H47.7817V23.9727H48.7925L48.9243 25.4521H48.9756C49.1416 25.1543 49.3418 24.8833 49.5762 24.6392C49.8105 24.3901 50.0815 24.1924 50.3892 24.0459C50.7017 23.8994 51.0483 23.8262 51.4292 23.8262ZM55.8853 23.9727V32H54.6694V23.9727H55.8853ZM55.292 20.9697C55.4922 20.9697 55.6631 21.0356 55.8047 21.1675C55.9512 21.2944 56.0244 21.4946 56.0244 21.7681C56.0244 22.0366 55.9512 22.2368 55.8047 22.3687C55.6631 22.5005 55.4922 22.5664 55.292 22.5664C55.082 22.5664 54.9062 22.5005 54.7646 22.3687C54.6279 22.2368 54.5596 22.0366 54.5596 21.7681C54.5596 21.4946 54.6279 21.2944 54.7646 21.1675C54.9062 21.0356 55.082 20.9697 55.292 20.9697ZM61.4546 35.6035C60.3999 35.6035 59.5869 35.4058 59.0156 35.0103C58.4443 34.6196 58.1587 34.0703 58.1587 33.3623C58.1587 32.8594 58.3174 32.4297 58.6348 32.0732C58.957 31.7168 59.4014 31.48 59.9678 31.3628C59.7578 31.2651 59.5771 31.1187 59.4258 30.9233C59.2793 30.728 59.2061 30.5034 59.2061 30.2495C59.2061 29.9565 59.2866 29.7002 59.4478 29.4805C59.6138 29.2559 59.8652 29.041 60.2021 28.8359C59.7822 28.665 59.4404 28.377 59.1768 27.9717C58.918 27.5615 58.7886 27.0854 58.7886 26.5435C58.7886 25.9673 58.9082 25.4766 59.1475 25.0713C59.3867 24.6611 59.7334 24.3486 60.1875 24.1338C60.6416 23.9189 61.1909 23.8115 61.8354 23.8115C61.9771 23.8115 62.1187 23.8188 62.2603 23.8335C62.4067 23.8433 62.5459 23.8604 62.6777 23.8848C62.8096 23.9043 62.9243 23.9287 63.022 23.958H65.7759V24.7417L64.2964 24.9248C64.4429 25.1152 64.5649 25.3447 64.6626 25.6133C64.7603 25.8818 64.8091 26.1797 64.8091 26.5068C64.8091 27.3076 64.5381 27.9448 63.9961 28.4185C63.4541 28.8872 62.7095 29.1216 61.7622 29.1216C61.5376 29.1216 61.3081 29.1021 61.0737 29.063C60.8345 29.1948 60.6514 29.3413 60.5244 29.5024C60.4023 29.6636 60.3413 29.8491 60.3413 30.0591C60.3413 30.2153 60.3877 30.3398 60.4805 30.4326C60.5781 30.5254 60.7173 30.5938 60.8979 30.6377C61.0786 30.6768 61.2959 30.6963 61.5498 30.6963H62.9634C63.8374 30.6963 64.5063 30.8794 64.9702 31.2456C65.439 31.6118 65.6733 32.1465 65.6733 32.8496C65.6733 33.7383 65.312 34.4194 64.5894 34.8931C63.8667 35.3667 62.8218 35.6035 61.4546 35.6035ZM61.4912 34.6514C62.1553 34.6514 62.7046 34.583 63.1392 34.4463C63.5786 34.3145 63.9058 34.1216 64.1206 33.8677C64.3403 33.6187 64.4502 33.3208 64.4502 32.9741C64.4502 32.6519 64.377 32.4077 64.2305 32.2417C64.084 32.0806 63.8691 31.9731 63.5859 31.9194C63.3027 31.8608 62.9561 31.8315 62.5459 31.8315H61.1543C60.793 31.8315 60.478 31.8877 60.2095 32C59.9409 32.1123 59.7334 32.2783 59.5869 32.498C59.4453 32.7178 59.3745 32.9912 59.3745 33.3184C59.3745 33.7529 59.5576 34.0825 59.9238 34.3071C60.29 34.5366 60.8125 34.6514 61.4912 34.6514ZM61.8062 28.2354C62.3872 28.2354 62.8242 28.0889 63.1172 27.7959C63.4102 27.5029 63.5566 27.0757 63.5566 26.5142C63.5566 25.9136 63.4077 25.4644 63.1099 25.1665C62.812 24.8638 62.3726 24.7124 61.7915 24.7124C61.2349 24.7124 60.8052 24.8687 60.5024 25.1812C60.2046 25.4888 60.0557 25.9404 60.0557 26.5361C60.0557 27.083 60.207 27.5029 60.5098 27.7959C60.8125 28.0889 61.2446 28.2354 61.8062 28.2354ZM69.3237 20.6035V24.0093C69.3237 24.2046 69.3188 24.4023 69.3091 24.6025C69.2993 24.7979 69.2822 24.9785 69.2578 25.1445H69.3384C69.5044 24.8613 69.7144 24.6245 69.9683 24.4341C70.2271 24.2388 70.52 24.0923 70.8472 23.9946C71.1743 23.8921 71.521 23.8408 71.8872 23.8408C72.5317 23.8408 73.0688 23.9434 73.4985 24.1484C73.9331 24.3535 74.2578 24.6709 74.4727 25.1006C74.6924 25.5303 74.8022 26.0869 74.8022 26.7705V32H73.6011V26.8511C73.6011 26.1821 73.4473 25.6816 73.1396 25.3496C72.8369 25.0176 72.3706 24.8516 71.7407 24.8516C71.145 24.8516 70.6689 24.9663 70.3125 25.1958C69.9609 25.4204 69.707 25.7524 69.5508 26.1919C69.3994 26.6313 69.3237 27.1685 69.3237 27.8032V32H68.1079V20.6035H69.3237ZM80.6499 31.1504C80.8501 31.1504 81.0552 31.1333 81.2651 31.0991C81.4751 31.0649 81.646 31.0234 81.7778 30.9746V31.9194C81.6362 31.9829 81.4385 32.0366 81.1846 32.0806C80.9355 32.1245 80.6914 32.1465 80.4521 32.1465C80.0273 32.1465 79.6416 32.0732 79.2949 31.9268C78.9482 31.7754 78.6699 31.5215 78.46 31.165C78.2549 30.8086 78.1523 30.3154 78.1523 29.6855V24.9248H77.0098V24.3315L78.1597 23.8555L78.6431 22.1123H79.3755V23.9727H81.7266V24.9248H79.3755V29.6489C79.3755 30.1519 79.4902 30.5278 79.7197 30.7769C79.9541 31.0259 80.2642 31.1504 80.6499 31.1504ZM89.3467 29.8027C89.3467 30.3154 89.2173 30.7476 88.9585 31.0991C88.7046 31.4458 88.3384 31.707 87.8599 31.8828C87.3862 32.0586 86.8198 32.1465 86.1606 32.1465C85.5991 32.1465 85.1133 32.1025 84.7031 32.0146C84.293 31.9268 83.9341 31.8022 83.6265 31.6411V30.5205C83.9536 30.6816 84.3442 30.8281 84.7983 30.96C85.2524 31.0918 85.7163 31.1577 86.1899 31.1577C86.8833 31.1577 87.3862 31.0454 87.6987 30.8208C88.0112 30.5962 88.1675 30.291 88.1675 29.9053C88.1675 29.6855 88.104 29.4927 87.9771 29.3267C87.855 29.1558 87.6475 28.9922 87.3545 28.8359C87.0615 28.6748 86.6562 28.499 86.1387 28.3086C85.626 28.1133 85.1816 27.9204 84.8057 27.73C84.4346 27.5347 84.1465 27.2979 83.9414 27.0195C83.7412 26.7412 83.6411 26.3799 83.6411 25.9355C83.6411 25.2568 83.9146 24.7368 84.4614 24.3755C85.0132 24.0093 85.7358 23.8262 86.6294 23.8262C87.1128 23.8262 87.5645 23.875 87.9844 23.9727C88.4092 24.0654 88.8047 24.1924 89.1709 24.3535L88.7607 25.3276C88.4287 25.186 88.0747 25.0664 87.6987 24.9688C87.3228 24.8711 86.9395 24.8223 86.5488 24.8223C85.9873 24.8223 85.5552 24.915 85.2524 25.1006C84.9546 25.2861 84.8057 25.54 84.8057 25.8623C84.8057 26.1113 84.874 26.3164 85.0107 26.4775C85.1523 26.6387 85.377 26.79 85.6846 26.9316C85.9922 27.0732 86.3975 27.2393 86.9004 27.4297C87.4033 27.6152 87.8379 27.8081 88.2041 28.0083C88.5703 28.2036 88.8511 28.4429 89.0464 28.7261C89.2466 29.0044 89.3467 29.3633 89.3467 29.8027ZM100.346 23.8262C100.507 23.8262 100.676 23.8359 100.852 23.8555C101.027 23.8701 101.184 23.8921 101.32 23.9214L101.167 25.0493C101.035 25.0151 100.888 24.9883 100.727 24.9688C100.566 24.9492 100.415 24.9395 100.273 24.9395C99.9507 24.9395 99.6455 25.0054 99.3574 25.1372C99.0742 25.2642 98.8252 25.4497 98.6104 25.6938C98.3955 25.9331 98.2271 26.2236 98.105 26.5654C97.9829 26.9023 97.9219 27.2783 97.9219 27.6934V32H96.6987V23.9727H97.7095L97.8413 25.4521H97.8926C98.0586 25.1543 98.2588 24.8833 98.4932 24.6392C98.7275 24.3901 98.9985 24.1924 99.3062 24.0459C99.6187 23.8994 99.9653 23.8262 100.346 23.8262ZM106.677 23.8262C107.361 23.8262 107.947 23.9775 108.435 24.2803C108.923 24.583 109.297 25.0078 109.556 25.5547C109.814 26.0967 109.944 26.7314 109.944 27.459V28.2134H104.399C104.414 29.1558 104.648 29.8735 105.103 30.3667C105.557 30.8599 106.196 31.1064 107.021 31.1064C107.529 31.1064 107.979 31.0601 108.369 30.9673C108.76 30.8745 109.165 30.7378 109.585 30.5571V31.6265C109.18 31.8071 108.777 31.939 108.376 32.022C107.981 32.105 107.512 32.1465 106.97 32.1465C106.199 32.1465 105.525 31.9902 104.949 31.6777C104.377 31.3604 103.933 30.8965 103.616 30.2861C103.298 29.6758 103.14 28.9287 103.14 28.0449C103.14 27.1807 103.284 26.4336 103.572 25.8037C103.865 25.1689 104.275 24.6807 104.802 24.3389C105.334 23.9971 105.959 23.8262 106.677 23.8262ZM106.663 24.8223C106.013 24.8223 105.496 25.0347 105.11 25.4595C104.724 25.8843 104.495 26.4775 104.421 27.2393H108.669C108.665 26.7607 108.589 26.3408 108.442 25.9795C108.301 25.6133 108.083 25.3301 107.791 25.1299C107.498 24.9248 107.122 24.8223 106.663 24.8223ZM117.952 29.8027C117.952 30.3154 117.823 30.7476 117.564 31.0991C117.31 31.4458 116.944 31.707 116.465 31.8828C115.992 32.0586 115.425 32.1465 114.766 32.1465C114.205 32.1465 113.719 32.1025 113.309 32.0146C112.898 31.9268 112.54 31.8022 112.232 31.6411V30.5205C112.559 30.6816 112.95 30.8281 113.404 30.96C113.858 31.0918 114.322 31.1577 114.795 31.1577C115.489 31.1577 115.992 31.0454 116.304 30.8208C116.617 30.5962 116.773 30.291 116.773 29.9053C116.773 29.6855 116.709 29.4927 116.583 29.3267C116.46 29.1558 116.253 28.9922 115.96 28.8359C115.667 28.6748 115.262 28.499 114.744 28.3086C114.231 28.1133 113.787 27.9204 113.411 27.73C113.04 27.5347 112.752 27.2979 112.547 27.0195C112.347 26.7412 112.247 26.3799 112.247 25.9355C112.247 25.2568 112.52 24.7368 113.067 24.3755C113.619 24.0093 114.341 23.8262 115.235 23.8262C115.718 23.8262 116.17 23.875 116.59 23.9727C117.015 24.0654 117.41 24.1924 117.776 24.3535L117.366 25.3276C117.034 25.186 116.68 25.0664 116.304 24.9688C115.928 24.8711 115.545 24.8223 115.154 24.8223C114.593 24.8223 114.161 24.915 113.858 25.1006C113.56 25.2861 113.411 25.54 113.411 25.8623C113.411 26.1113 113.479 26.3164 113.616 26.4775C113.758 26.6387 113.982 26.79 114.29 26.9316C114.598 27.0732 115.003 27.2393 115.506 27.4297C116.009 27.6152 116.443 27.8081 116.81 28.0083C117.176 28.2036 117.457 28.4429 117.652 28.7261C117.852 29.0044 117.952 29.3633 117.952 29.8027ZM123.749 23.8262C124.432 23.8262 125.018 23.9775 125.506 24.2803C125.995 24.583 126.368 25.0078 126.627 25.5547C126.886 26.0967 127.015 26.7314 127.015 27.459V28.2134H121.471C121.485 29.1558 121.72 29.8735 122.174 30.3667C122.628 30.8599 123.268 31.1064 124.093 31.1064C124.601 31.1064 125.05 31.0601 125.44 30.9673C125.831 30.8745 126.236 30.7378 126.656 30.5571V31.6265C126.251 31.8071 125.848 31.939 125.448 32.022C125.052 32.105 124.583 32.1465 124.042 32.1465C123.27 32.1465 122.596 31.9902 122.02 31.6777C121.449 31.3604 121.004 30.8965 120.687 30.2861C120.37 29.6758 120.211 28.9287 120.211 28.0449C120.211 27.1807 120.355 26.4336 120.643 25.8037C120.936 25.1689 121.346 24.6807 121.874 24.3389C122.406 23.9971 123.031 23.8262 123.749 23.8262ZM123.734 24.8223C123.084 24.8223 122.567 25.0347 122.181 25.4595C121.795 25.8843 121.566 26.4775 121.493 27.2393H125.741C125.736 26.7607 125.66 26.3408 125.514 25.9795C125.372 25.6133 125.155 25.3301 124.862 25.1299C124.569 24.9248 124.193 24.8223 123.734 24.8223ZM133.478 23.8262C133.639 23.8262 133.808 23.8359 133.983 23.8555C134.159 23.8701 134.315 23.8921 134.452 23.9214L134.298 25.0493C134.167 25.0151 134.02 24.9883 133.859 24.9688C133.698 24.9492 133.546 24.9395 133.405 24.9395C133.083 24.9395 132.777 25.0054 132.489 25.1372C132.206 25.2642 131.957 25.4497 131.742 25.6938C131.527 25.9331 131.359 26.2236 131.237 26.5654C131.115 26.9023 131.054 27.2783 131.054 27.6934V32H129.831V23.9727H130.841L130.973 25.4521H131.024C131.19 25.1543 131.391 24.8833 131.625 24.6392C131.859 24.3901 132.13 24.1924 132.438 24.0459C132.75 23.8994 133.097 23.8262 133.478 23.8262ZM138.483 32L135.437 23.9727H136.74L138.505 28.8286C138.627 29.1606 138.752 29.5269 138.879 29.9272C139.006 30.3276 139.094 30.6499 139.143 30.894H139.194C139.252 30.6499 139.35 30.3276 139.487 29.9272C139.624 29.522 139.748 29.1558 139.86 28.8286L141.625 23.9727H142.929L139.875 32H138.483ZM148.059 23.8262C148.743 23.8262 149.329 23.9775 149.817 24.2803C150.305 24.583 150.679 25.0078 150.938 25.5547C151.196 26.0967 151.326 26.7314 151.326 27.459V28.2134H145.781C145.796 29.1558 146.03 29.8735 146.484 30.3667C146.938 30.8599 147.578 31.1064 148.403 31.1064C148.911 31.1064 149.36 31.0601 149.751 30.9673C150.142 30.8745 150.547 30.7378 150.967 30.5571V31.6265C150.562 31.8071 150.159 31.939 149.758 32.022C149.363 32.105 148.894 32.1465 148.352 32.1465C147.581 32.1465 146.907 31.9902 146.331 31.6777C145.759 31.3604 145.315 30.8965 144.998 30.2861C144.68 29.6758 144.521 28.9287 144.521 28.0449C144.521 27.1807 144.666 26.4336 144.954 25.8037C145.247 25.1689 145.657 24.6807 146.184 24.3389C146.716 23.9971 147.341 23.8262 148.059 23.8262ZM148.044 24.8223C147.395 24.8223 146.877 25.0347 146.492 25.4595C146.106 25.8843 145.876 26.4775 145.803 27.2393H150.051C150.046 26.7607 149.971 26.3408 149.824 25.9795C149.683 25.6133 149.465 25.3301 149.172 25.1299C148.879 24.9248 148.503 24.8223 148.044 24.8223ZM156.998 32.1465C155.982 32.1465 155.176 31.7998 154.581 31.1064C153.99 30.4131 153.694 29.3828 153.694 28.0156C153.694 26.6338 153.997 25.5913 154.603 24.8882C155.208 24.1802 156.014 23.8262 157.02 23.8262C157.444 23.8262 157.815 23.8823 158.133 23.9946C158.45 24.1069 158.724 24.2583 158.953 24.4487C159.183 24.6343 159.375 24.8467 159.532 25.0859H159.62C159.6 24.9346 159.581 24.7271 159.561 24.4634C159.542 24.1997 159.532 23.9849 159.532 23.8188V20.6035H160.748V32H159.766L159.583 30.8574H159.532C159.38 31.0967 159.188 31.314 158.953 31.5093C158.724 31.7046 158.448 31.8608 158.125 31.978C157.808 32.0903 157.432 32.1465 156.998 32.1465ZM157.188 31.1357C158.047 31.1357 158.655 30.8916 159.012 30.4033C159.368 29.915 159.546 29.1899 159.546 28.228V28.0083C159.546 26.9878 159.375 26.2041 159.034 25.6572C158.697 25.1104 158.082 24.8369 157.188 24.8369C156.441 24.8369 155.882 25.125 155.511 25.7012C155.14 26.2725 154.954 27.0537 154.954 28.0449C154.954 29.0312 155.137 29.793 155.503 30.3301C155.875 30.8672 156.436 31.1357 157.188 31.1357ZM163.548 29.1436L169.283 26.7192L163.548 24.002V22.918L170.594 26.4043V27.1001L163.548 30.2202V29.1436Z" fill="white"/>
</svg>
