<svg width="229" height="90" viewBox="0 0 229 90" fill="none" xmlns="http://www.w3.org/2000/svg">
<path d="M88.5981 61.4447L91 58.8855L77.1538 41.6819M88.5981 61.4447L84.2182 68.6958L78.2841 71.5393L63.0251 66.7053M88.5981 61.4447L63.0251 36.9901M63.0251 66.7053L57.6562 68.6958L43.6688 84.3353M63.0251 66.7053V36.9901M43.6688 84.3353L7.6405 77.9373M43.6688 84.3353L25.1601 53.0562M7.6405 77.9373L25.1601 53.0562M7.6405 77.9373L1 58.8855M1 58.8855L25.1601 53.0562M1 58.8855L20.3564 20.213M20.3564 20.213L19.5086 7.70138L27.2794 5L38.4411 12.6776M20.3564 20.213L63.0251 36.9901M20.3564 20.213L25.1601 53.0562M38.4411 12.6776L45.6468 10.9715L52.8524 9.26534L60.0581 10.8293M38.4411 12.6776L63.0251 36.9901M60.0581 10.8293L67.8289 6.2796L72.9152 7.70138L74.1868 13.9572L70.6546 19.36M60.0581 10.8293L63.0251 36.9901M70.6546 19.36L77.1538 27.4641L78.2841 36.9901L77.1538 41.6819M70.6546 19.36L66.8399 28.175L63.0251 36.9901M77.1538 41.6819L63.0251 36.9901M63.0251 36.9901L25.1601 53.0562" stroke="white" stroke-width="1.5" stroke-linejoin="round"/>
<path d="M119.949 16.2695C119.949 18.1992 119.598 19.8125 118.895 21.1094C118.191 22.3984 117.172 23.3711 115.836 24.0273C114.508 24.6758 112.895 25 110.996 25H106.344V7.86719H111.512C113.254 7.86719 114.754 8.1875 116.012 8.82812C117.27 9.46094 118.238 10.4023 118.918 11.6523C119.605 12.8945 119.949 14.4336 119.949 16.2695ZM117.852 16.3398C117.852 14.8008 117.594 13.5312 117.078 12.5312C116.57 11.5312 115.82 10.7891 114.828 10.3047C113.844 9.8125 112.637 9.56641 111.207 9.56641H108.336V23.2891H110.762C113.121 23.2891 114.891 22.707 116.07 21.543C117.258 20.3789 117.852 18.6445 117.852 16.3398ZM116.012 49.4414C116.012 50.457 115.758 51.3242 115.25 52.043C114.75 52.7539 114.047 53.2969 113.141 53.6719C112.234 54.0469 111.168 54.2344 109.941 54.2344C109.293 54.2344 108.68 54.2031 108.102 54.1406C107.523 54.0781 106.992 53.9883 106.508 53.8711C106.023 53.7539 105.598 53.6094 105.23 53.4375V51.5273C105.816 51.7695 106.531 51.9961 107.375 52.207C108.219 52.4102 109.102 52.5117 110.023 52.5117C110.883 52.5117 111.609 52.3984 112.203 52.1719C112.797 51.9375 113.246 51.6055 113.551 51.1758C113.863 50.7383 114.02 50.2148 114.02 49.6055C114.02 49.0195 113.891 48.5312 113.633 48.1406C113.375 47.7422 112.945 47.3828 112.344 47.0625C111.75 46.7344 110.938 46.3867 109.906 46.0195C109.18 45.7617 108.539 45.4805 107.984 45.1758C107.43 44.8633 106.965 44.5117 106.59 44.1211C106.215 43.7305 105.93 43.2773 105.734 42.7617C105.547 42.2461 105.453 41.6562 105.453 40.9922C105.453 40.0781 105.684 39.2969 106.145 38.6484C106.613 37.9922 107.258 37.4922 108.078 37.1484C108.906 36.7969 109.855 36.6211 110.926 36.6211C111.84 36.6211 112.684 36.707 113.457 36.8789C114.238 37.0508 114.953 37.2812 115.602 37.5703L114.98 39.2812C114.363 39.0234 113.707 38.8086 113.012 38.6367C112.324 38.4648 111.613 38.3789 110.879 38.3789C110.145 38.3789 109.523 38.4883 109.016 38.707C108.516 38.918 108.133 39.2188 107.867 39.6094C107.602 40 107.469 40.4648 107.469 41.0039C107.469 41.6055 107.594 42.1055 107.844 42.5039C108.102 42.9023 108.508 43.2578 109.062 43.5703C109.625 43.875 110.367 44.1953 111.289 44.5312C112.297 44.8984 113.152 45.2891 113.855 45.7031C114.559 46.1094 115.094 46.6094 115.461 47.2031C115.828 47.7891 116.012 48.5352 116.012 49.4414ZM119.305 65.8672V76.9531C119.305 78.1641 119.059 79.2422 118.566 80.1875C118.082 81.1328 117.348 81.8789 116.363 82.4258C115.379 82.9648 114.145 83.2344 112.66 83.2344C110.543 83.2344 108.93 82.6602 107.82 81.5117C106.719 80.3633 106.168 78.8281 106.168 76.9062V65.8672H108.172V76.9648C108.172 78.418 108.555 79.5391 109.32 80.3281C110.094 81.1172 111.246 81.5117 112.777 81.5117C113.824 81.5117 114.68 81.3242 115.344 80.9492C116.016 80.5664 116.512 80.0352 116.832 79.3555C117.16 78.668 117.324 77.875 117.324 76.9766V65.8672H119.305Z" fill="#F3A47D"/>
<path d="M136.904 25L134.795 19.5625H127.927L125.83 25H123.814L130.517 7.79688H132.31L138.966 25H136.904ZM134.197 17.793L132.193 12.3906C132.146 12.25 132.068 12.0195 131.959 11.6992C131.857 11.3789 131.752 11.0469 131.642 10.7031C131.533 10.3594 131.443 10.082 131.373 9.87109C131.295 10.1914 131.209 10.5117 131.115 10.832C131.029 11.1445 130.943 11.4375 130.857 11.7109C130.771 11.9766 130.697 12.2031 130.634 12.3906L128.595 17.793H134.197ZM149.007 25H147.003V9.625H141.612V7.86719H154.374V9.625H149.007V25ZM170.11 25L168.001 19.5625H161.134L159.036 25H157.02L163.723 7.79688H165.516L172.173 25H170.11ZM167.403 17.793L165.399 12.3906C165.352 12.25 165.274 12.0195 165.165 11.6992C165.063 11.3789 164.958 11.0469 164.848 10.7031C164.739 10.3594 164.649 10.082 164.579 9.87109C164.501 10.1914 164.415 10.5117 164.321 10.832C164.235 11.1445 164.149 11.4375 164.063 11.7109C163.977 11.9766 163.903 12.2031 163.841 12.3906L161.802 17.793H167.403ZM129.24 38.3789C128.295 38.3789 127.443 38.543 126.685 38.8711C125.935 39.1914 125.295 39.6602 124.763 40.2773C124.24 40.8867 123.837 41.625 123.556 42.4922C123.275 43.3594 123.134 44.3359 123.134 45.4219C123.134 46.8594 123.357 48.1094 123.802 49.1719C124.255 50.2266 124.927 51.043 125.818 51.6211C126.716 52.1992 127.837 52.4883 129.181 52.4883C129.947 52.4883 130.666 52.4258 131.337 52.3008C132.017 52.168 132.677 52.0039 133.318 51.8086V53.543C132.693 53.7773 132.037 53.9492 131.349 54.0586C130.662 54.1758 129.845 54.2344 128.9 54.2344C127.158 54.2344 125.701 53.875 124.529 53.1562C123.365 52.4297 122.49 51.4062 121.904 50.0859C121.326 48.7656 121.037 47.207 121.037 45.4102C121.037 44.1133 121.216 42.9297 121.576 41.8594C121.943 40.7812 122.474 39.8516 123.17 39.0703C123.873 38.2891 124.732 37.6875 125.748 37.2656C126.771 36.8359 127.943 36.6211 129.263 36.6211C130.13 36.6211 130.966 36.707 131.771 36.8789C132.576 37.0508 133.302 37.2969 133.951 37.6172L133.154 39.3047C132.607 39.0547 132.005 38.8398 131.349 38.6602C130.701 38.4727 129.998 38.3789 129.24 38.3789ZM139.433 54V36.8672H141.425V54H139.433ZM158.075 54H148.536V36.8672H158.075V38.625H150.528V44.168H157.641V45.9023H150.528V52.2422H158.075V54ZM177.666 54H175.37L166.03 39.6094H165.936C165.959 39.9922 165.987 40.4297 166.018 40.9219C166.049 41.4062 166.073 41.9258 166.088 42.4805C166.112 43.0273 166.123 43.5859 166.123 44.1562V54H164.272V36.8672H166.557L175.862 51.2109H175.944C175.928 50.9375 175.909 50.5508 175.885 50.0508C175.862 49.543 175.838 49 175.815 48.4219C175.799 47.8359 175.791 47.293 175.791 46.793V36.8672H177.666V54ZM192.066 38.3789C191.121 38.3789 190.27 38.543 189.512 38.8711C188.762 39.1914 188.121 39.6602 187.59 40.2773C187.066 40.8867 186.664 41.625 186.383 42.4922C186.102 43.3594 185.961 44.3359 185.961 45.4219C185.961 46.8594 186.184 48.1094 186.629 49.1719C187.082 50.2266 187.754 51.043 188.645 51.6211C189.543 52.1992 190.664 52.4883 192.008 52.4883C192.773 52.4883 193.492 52.4258 194.164 52.3008C194.844 52.168 195.504 52.0039 196.145 51.8086V53.543C195.52 53.7773 194.863 53.9492 194.176 54.0586C193.488 54.1758 192.672 54.2344 191.727 54.2344C189.984 54.2344 188.527 53.875 187.355 53.1562C186.191 52.4297 185.316 51.4062 184.73 50.0859C184.152 48.7656 183.863 47.207 183.863 45.4102C183.863 44.1133 184.043 42.9297 184.402 41.8594C184.77 40.7812 185.301 39.8516 185.996 39.0703C186.699 38.2891 187.559 37.6875 188.574 37.2656C189.598 36.8359 190.77 36.6211 192.09 36.6211C192.957 36.6211 193.793 36.707 194.598 36.8789C195.402 37.0508 196.129 37.2969 196.777 37.6172L195.98 39.3047C195.434 39.0547 194.832 38.8398 194.176 38.6602C193.527 38.4727 192.824 38.3789 192.066 38.3789ZM211.798 54H202.259V36.8672H211.798V38.625H204.252V44.168H211.365V45.9023H204.252V52.2422H211.798V54ZM139.646 83H137.349L128.009 68.6094H127.916C127.939 68.9922 127.966 69.4297 127.998 69.9219C128.029 70.4062 128.052 70.9258 128.068 71.4805C128.091 72.0273 128.103 72.5859 128.103 73.1562V83H126.252V65.8672H128.537L137.841 80.2109H137.923C137.908 79.9375 137.888 79.5508 137.865 79.0508C137.841 78.543 137.818 78 137.795 77.4219C137.779 76.8359 137.771 76.293 137.771 75.793V65.8672H139.646V83ZM146.722 83V65.8672H148.714V83H146.722ZM170.684 74.4102C170.684 75.7305 170.516 76.9336 170.18 78.0195C169.845 79.0977 169.345 80.0273 168.68 80.8086C168.024 81.582 167.208 82.1797 166.231 82.6016C165.255 83.0234 164.122 83.2344 162.833 83.2344C161.505 83.2344 160.345 83.0234 159.352 82.6016C158.368 82.1797 157.548 81.5781 156.891 80.7969C156.243 80.0156 155.755 79.082 155.427 77.9961C155.106 76.9102 154.946 75.707 154.946 74.3867C154.946 72.6367 155.235 71.1016 155.813 69.7812C156.391 68.4609 157.266 67.4336 158.438 66.6992C159.618 65.9648 161.095 65.5977 162.868 65.5977C164.563 65.5977 165.989 65.9609 167.145 66.6875C168.309 67.4141 169.188 68.4375 169.782 69.7578C170.384 71.0703 170.684 72.6211 170.684 74.4102ZM157.044 74.4102C157.044 75.8633 157.251 77.1211 157.665 78.1836C158.079 79.2461 158.712 80.0664 159.563 80.6445C160.423 81.2227 161.513 81.5117 162.833 81.5117C164.161 81.5117 165.247 81.2227 166.091 80.6445C166.942 80.0664 167.571 79.2461 167.977 78.1836C168.384 77.1211 168.587 75.8633 168.587 74.4102C168.587 72.1992 168.122 70.4727 167.192 69.2305C166.27 67.9805 164.829 67.3555 162.868 67.3555C161.54 67.3555 160.446 67.6406 159.587 68.2109C158.727 68.7812 158.087 69.5938 157.665 70.6484C157.251 71.6953 157.044 72.9492 157.044 74.4102ZM190.299 83H188.002L178.662 68.6094H178.569C178.592 68.9922 178.62 69.4297 178.651 69.9219C178.682 70.4062 178.705 70.9258 178.721 71.4805C178.745 72.0273 178.756 72.5859 178.756 73.1562V83H176.905V65.8672H179.19L188.495 80.2109H188.577C188.561 79.9375 188.541 79.5508 188.518 79.0508C188.495 78.543 188.471 78 188.448 77.4219C188.432 76.8359 188.424 76.293 188.424 75.793V65.8672H190.299V83Z" fill="white"/>
</svg>
