<svg width="275" height="112" viewBox="0 0 275 112" fill="none" xmlns="http://www.w3.org/2000/svg">
<path d="M103.239 74.4663L100.51 77.3711L95.5348 85.6016L88.7938 88.8292L71.4597 83.3422L65.3607 85.6016L49.4711 103.354L8.54352 96.0914L1 74.4663L22.9886 30.5705L22.0256 16.369L30.8531 13.3027L43.5326 22.0173L51.7182 20.0808L59.9037 18.1442L68.0892 19.9194L76.9167 14.7552L82.6947 16.369L84.1393 23.4698L80.1267 29.6023L87.5098 38.801L88.7938 49.6135L87.5098 54.9391L103.239 74.4663Z" fill="#537ABB"/>
<path d="M100.51 77.3711L103.239 74.4663L87.5098 54.9391M100.51 77.3711L95.5348 85.6016L88.7938 88.8292L71.4597 83.3422M100.51 77.3711L71.4597 49.6135M71.4597 83.3422L65.3607 85.6016L49.4711 103.354M71.4597 83.3422V49.6135M49.4711 103.354L8.54352 96.0914M49.4711 103.354L28.4456 67.8496M8.54352 96.0914L28.4456 67.8496M8.54352 96.0914L1 74.4663M1 74.4663L28.4456 67.8496M1 74.4663L22.9886 30.5705M22.9886 30.5705L22.0256 16.369L30.8531 13.3027L43.5326 22.0173M22.9886 30.5705L71.4597 49.6135M22.9886 30.5705L28.4456 67.8496M43.5326 22.0173L51.7182 20.0808L59.9037 18.1442L68.0892 19.9194M43.5326 22.0173L71.4597 49.6135M68.0892 19.9194L76.9167 14.7552L82.6947 16.369L84.1393 23.4698L80.1267 29.6023M68.0892 19.9194L71.4597 49.6135M80.1267 29.6023L87.5098 38.801L88.7938 49.6135L87.5098 54.9391M80.1267 29.6023L75.7932 39.6079L71.4597 49.6135M87.5098 54.9391L71.4597 49.6135M71.4597 49.6135L28.4456 67.8496" stroke="white" stroke-width="1.5" stroke-linejoin="round"/>
<path d="M121.967 13.9231H130.337C131.737 13.9231 133.087 14.1431 134.387 14.5831C135.687 15.0031 136.837 15.6531 137.837 16.5331C138.837 17.4131 139.637 18.5231 140.237 19.8631C140.837 21.1831 141.137 22.7431 141.137 24.5431C141.137 26.3631 140.787 27.9431 140.087 29.2831C139.407 30.6031 138.517 31.7031 137.417 32.5831C136.337 33.4431 135.127 34.0931 133.787 34.5331C132.467 34.9531 131.167 35.1631 129.887 35.1631H121.967V13.9231ZM128.567 31.7431C129.747 31.7431 130.857 31.6131 131.897 31.3531C132.957 31.0731 133.877 30.6531 134.657 30.0931C135.437 29.5131 136.047 28.7731 136.487 27.8731C136.947 26.9531 137.177 25.8431 137.177 24.5431C137.177 23.2631 136.977 22.1631 136.577 21.2431C136.177 20.3231 135.617 19.5831 134.897 19.0231C134.197 18.4431 133.357 18.0231 132.377 17.7631C131.417 17.4831 130.357 17.3431 129.197 17.3431H125.747V31.7431H128.567ZM132.377 54.4831C131.977 53.9031 131.437 53.4831 130.757 53.2231C130.097 52.9431 129.397 52.8031 128.657 52.8031C128.217 52.8031 127.787 52.8531 127.367 52.9531C126.967 53.0531 126.597 53.2131 126.257 53.4331C125.937 53.6531 125.677 53.9431 125.477 54.3031C125.277 54.6431 125.177 55.0531 125.177 55.5331C125.177 56.2531 125.427 56.8031 125.927 57.1831C126.427 57.5631 127.047 57.8931 127.787 58.1731C128.527 58.4531 129.337 58.7231 130.217 58.9831C131.097 59.2431 131.907 59.6031 132.647 60.0631C133.387 60.5231 134.007 61.1331 134.507 61.8931C135.007 62.6531 135.257 63.6631 135.257 64.9231C135.257 66.0631 135.047 67.0631 134.627 67.9231C134.207 68.7631 133.637 69.4631 132.917 70.0231C132.217 70.5831 131.397 71.0031 130.457 71.2831C129.517 71.5631 128.527 71.7031 127.487 71.7031C126.167 71.7031 124.897 71.4831 123.677 71.0431C122.457 70.6031 121.407 69.8631 120.527 68.8231L123.377 66.0631C123.837 66.7631 124.437 67.3131 125.177 67.7131C125.937 68.0931 126.737 68.2831 127.577 68.2831C128.017 68.2831 128.457 68.2231 128.897 68.1031C129.337 67.9831 129.737 67.8031 130.097 67.5631C130.457 67.3231 130.747 67.0231 130.967 66.6631C131.187 66.2831 131.297 65.8531 131.297 65.3731C131.297 64.5931 131.047 63.9931 130.547 63.5731C130.047 63.1531 129.427 62.8031 128.687 62.5231C127.947 62.2231 127.137 61.9431 126.257 61.6831C125.377 61.4231 124.567 61.0731 123.827 60.6331C123.087 60.1731 122.467 59.5731 121.967 58.8331C121.467 58.0731 121.217 57.0631 121.217 55.8031C121.217 54.7031 121.437 53.7531 121.877 52.9531C122.337 52.1531 122.927 51.4931 123.647 50.9731C124.387 50.4331 125.227 50.0331 126.167 49.7731C127.107 49.5131 128.067 49.3831 129.047 49.3831C130.167 49.3831 131.247 49.5531 132.287 49.8931C133.347 50.2331 134.297 50.7931 135.137 51.5731L132.377 54.4831ZM138.977 99.3631C138.977 100.643 138.757 101.803 138.317 102.843C137.877 103.863 137.277 104.733 136.517 105.453C135.757 106.173 134.857 106.733 133.817 107.133C132.777 107.513 131.647 107.703 130.427 107.703C129.207 107.703 128.077 107.513 127.037 107.133C125.997 106.733 125.087 106.173 124.307 105.453C123.547 104.733 122.947 103.863 122.507 102.843C122.087 101.803 121.877 100.643 121.877 99.3631V85.9231H125.657V99.2431C125.657 99.7631 125.737 100.313 125.897 100.893C126.057 101.453 126.317 101.973 126.677 102.453C127.057 102.933 127.547 103.333 128.147 103.653C128.767 103.953 129.527 104.103 130.427 104.103C131.327 104.103 132.077 103.953 132.677 103.653C133.297 103.333 133.787 102.933 134.147 102.453C134.527 101.973 134.797 101.453 134.957 100.893C135.117 100.313 135.197 99.7631 135.197 99.2431V85.9231H138.977V99.3631Z" fill="#537ABB"/>
<path d="M154.781 13.9231H156.821L165.761 35.1631H163.541L161.231 29.5231H149.981L147.581 35.1631H145.511L154.781 13.9231ZM155.711 16.0831L150.761 27.7231H160.511L155.711 16.0831ZM174.467 15.7231H167.207V13.9231H183.707V15.7231H176.447V35.1631H174.467V15.7231ZM194.443 13.9231H196.483L205.423 35.1631H203.203L200.893 29.5231H189.643L187.243 35.1631H185.173L194.443 13.9231ZM195.373 16.0831L190.423 27.7231H200.173L195.373 16.0831ZM160.224 67.8331C159.204 69.2131 158.024 70.2031 156.684 70.8031C155.344 71.4031 153.894 71.7031 152.334 71.7031C150.714 71.7031 149.224 71.4331 147.864 70.8931C146.524 70.3331 145.374 69.5631 144.414 68.5831C143.454 67.5831 142.704 66.4031 142.164 65.0431C141.624 63.6631 141.354 62.1631 141.354 60.5431C141.354 58.9231 141.624 57.4331 142.164 56.0731C142.704 54.7131 143.454 53.5431 144.414 52.5631C145.374 51.5631 146.524 50.7831 147.864 50.2231C149.224 49.6631 150.714 49.3831 152.334 49.3831C153.774 49.3831 155.114 49.6431 156.354 50.1631C157.614 50.6631 158.714 51.5131 159.654 52.7131L158.034 54.0631C157.374 53.0631 156.524 52.3331 155.484 51.8731C154.464 51.4131 153.414 51.1831 152.334 51.1831C150.954 51.1831 149.704 51.4231 148.584 51.9031C147.484 52.3831 146.544 53.0431 145.764 53.8831C144.984 54.7231 144.384 55.7131 143.964 56.8531C143.544 57.9931 143.334 59.2231 143.334 60.5431C143.334 61.8631 143.544 63.0931 143.964 64.2331C144.384 65.3731 144.984 66.3631 145.764 67.2031C146.544 68.0431 147.484 68.7031 148.584 69.1831C149.704 69.6631 150.954 69.9031 152.334 69.9031C152.874 69.9031 153.434 69.8431 154.014 69.7231C154.594 69.5831 155.154 69.3831 155.694 69.1231C156.254 68.8431 156.784 68.5031 157.284 68.1031C157.784 67.6831 158.224 67.1831 158.604 66.6031L160.224 67.8331ZM166.857 49.9231H168.837V71.1631H166.857V49.9231ZM177.65 49.9231H190.64V51.7231H179.63V59.2831H189.95V61.0831H179.63V69.3631H191.12V71.1631H177.65V49.9231ZM198.433 49.9231H200.983L213.913 68.5231H213.973V49.9231H215.953V71.1631H213.403L200.473 52.5631H200.413V71.1631H198.433V49.9231ZM242.272 67.8331C241.252 69.2131 240.072 70.2031 238.732 70.8031C237.392 71.4031 235.942 71.7031 234.382 71.7031C232.762 71.7031 231.272 71.4331 229.912 70.8931C228.572 70.3331 227.422 69.5631 226.462 68.5831C225.502 67.5831 224.752 66.4031 224.212 65.0431C223.672 63.6631 223.402 62.1631 223.402 60.5431C223.402 58.9231 223.672 57.4331 224.212 56.0731C224.752 54.7131 225.502 53.5431 226.462 52.5631C227.422 51.5631 228.572 50.7831 229.912 50.2231C231.272 49.6631 232.762 49.3831 234.382 49.3831C235.822 49.3831 237.162 49.6431 238.402 50.1631C239.662 50.6631 240.762 51.5131 241.702 52.7131L240.082 54.0631C239.422 53.0631 238.572 52.3331 237.532 51.8731C236.512 51.4131 235.462 51.1831 234.382 51.1831C233.002 51.1831 231.752 51.4231 230.632 51.9031C229.532 52.3831 228.592 53.0431 227.812 53.8831C227.032 54.7231 226.432 55.7131 226.012 56.8531C225.592 57.9931 225.382 59.2231 225.382 60.5431C225.382 61.8631 225.592 63.0931 226.012 64.2331C226.432 65.3731 227.032 66.3631 227.812 67.2031C228.592 68.0431 229.532 68.7031 230.632 69.1831C231.752 69.6631 233.002 69.9031 234.382 69.9031C234.922 69.9031 235.482 69.8431 236.062 69.7231C236.642 69.5831 237.202 69.3831 237.742 69.1231C238.302 68.8431 238.832 68.5031 239.332 68.1031C239.832 67.6831 240.272 67.1831 240.652 66.6031L242.272 67.8331ZM248.905 49.9231H261.895V51.7231H250.885V59.2831H261.205V61.0831H250.885V69.3631H262.375V71.1631H248.905V49.9231ZM147.157 85.9231H149.707L162.637 104.523H162.697V85.9231H164.677V107.163H162.127L149.197 88.5631H149.137V107.163H147.157V85.9231ZM173.507 85.9231H175.487V107.163H173.507V85.9231ZM182.92 96.5431C182.92 94.9231 183.19 93.4331 183.73 92.0731C184.27 90.7131 185.02 89.5431 185.98 88.5631C186.94 87.5631 188.09 86.7831 189.43 86.2231C190.79 85.6631 192.28 85.3831 193.9 85.3831C195.52 85.3831 197 85.6631 198.34 86.2231C199.7 86.7831 200.86 87.5631 201.82 88.5631C202.78 89.5431 203.53 90.7131 204.07 92.0731C204.61 93.4331 204.88 94.9231 204.88 96.5431C204.88 98.1631 204.61 99.6631 204.07 101.043C203.53 102.403 202.78 103.583 201.82 104.583C200.86 105.563 199.7 106.333 198.34 106.893C197 107.433 195.52 107.703 193.9 107.703C192.28 107.703 190.79 107.433 189.43 106.893C188.09 106.333 186.94 105.563 185.98 104.583C185.02 103.583 184.27 102.403 183.73 101.043C183.19 99.6631 182.92 98.1631 182.92 96.5431ZM184.9 96.5431C184.9 97.8631 185.11 99.0931 185.53 100.233C185.95 101.373 186.55 102.363 187.33 103.203C188.11 104.043 189.05 104.703 190.15 105.183C191.27 105.663 192.52 105.903 193.9 105.903C195.28 105.903 196.52 105.663 197.62 105.183C198.74 104.703 199.69 104.043 200.47 103.203C201.25 102.363 201.85 101.373 202.27 100.233C202.69 99.0931 202.9 97.8631 202.9 96.5431C202.9 95.2231 202.69 93.9931 202.27 92.8531C201.85 91.7131 201.25 90.7231 200.47 89.8831C199.69 89.0431 198.74 88.3831 197.62 87.9031C196.52 87.4231 195.28 87.1831 193.9 87.1831C192.52 87.1831 191.27 87.4231 190.15 87.9031C189.05 88.3831 188.11 89.0431 187.33 89.8831C186.55 90.7231 185.95 91.7131 185.53 92.8531C185.11 93.9931 184.9 95.2231 184.9 96.5431ZM212.32 85.9231H214.87L227.8 104.523H227.86V85.9231H229.84V107.163H227.29L214.36 88.5631H214.3V107.163H212.32V85.9231Z" fill="black"/>
</svg>
